<svg xmlns="http://www.w3.org/2000/svg" width="359.184" height="326.645" viewBox="0 0 359.184 326.645"><circle cx="36.624" cy="36.624" r="36.624" transform="translate(58.061 62.344)" fill="#ff6584"/><path d="M496.184,276.46v96.328c0,78.524-56.617,142.175-126.455,142.171H137V418.631c0-51.474,24.332-96.563,60.774-121.513a120.476,120.476,0,0,1,19.736-10.981,114.8,114.8,0,0,1,12.319-4.592c.081-.031.167-.057.248-.078q1.85-.569,3.724-1.073c.07-.022.136-.039.206-.057a113.442,113.442,0,0,1,23.456-3.72c.935-.048,1.87-.087,2.812-.109.337-.013.679-.022,1.024-.022q1.071-.026,2.153-.026Z" transform="translate(-137 -188.82)" fill="#3f3d56"/><path d="M303.078,681c-91.527,0-165.757,28-166.068,62.581H469.146C468.835,709,394.6,681,303.078,681Z" transform="translate(-137.005 -416.937)" fill="#f2f2f2"/><g transform="translate(102.766 292.095)" opacity="0.1"><ellipse cx="34.889" cy="9.691" rx="34.889" ry="9.691"/></g><g transform="translate(168.128 274.651)" opacity="0.1"><ellipse cx="34.889" cy="9.691" rx="34.889" ry="9.691"/></g><g transform="translate(106.017 293)" opacity="0.1"><ellipse cx="31.5" cy="9" rx="31.5" ry="9" transform="translate(-0.017)"/></g><g transform="translate(172.136 276)" opacity="0.1"><ellipse cx="31" cy="8.5" rx="31" ry="8.5" transform="translate(-0.136)"/></g><ellipse cx="3" cy="3.5" rx="3" ry="3.5" transform="translate(57 123)" fill="#f2f2f2"/><circle cx="3" cy="3" r="3" transform="translate(284 243)" fill="#f2f2f2"/><circle cx="3" cy="3" r="3" transform="translate(156 145)" fill="#f2f2f2"/><ellipse cx="2" cy="1.5" rx="2" ry="1.5" transform="translate(283 128)" fill="#ff6584"/><ellipse cx="2" cy="1.5" rx="2" ry="1.5" transform="translate(65 215)" fill="#ff6584"/><path d="M91.744,580.295H90.95V579.5h-.155v.795H90v.155h.795v.795h.155v-.795h.795Z" transform="translate(-50.75 -326.775)" fill="#f2f2f2"/><path d="M676.744,432.295h-.795V431.5h-.155v.795H675v.155h.795v.795h.155v-.795h.795Z" transform="translate(-413.317 -243.319)" fill="#f2f2f2"/><path d="M827.744,402.295h-.795V401.5h-.155v.795H826v.155h.795v.795h.155v-.795h.795Z" transform="translate(-510.427 -226.403)" fill="#f2f2f2"/><path d="M502.744,482.295h-.795V481.5h-.155v.795H501v.155h.795v.795h.155v-.795h.795Z" transform="translate(-306.773 -271.514)" fill="#f2f2f2"/><path d="M783.744,492.295h-.795V491.5h-.155v.795H782v.155h.795v.795h.155v-.795h.795Z" transform="translate(-485.616 -277.153)" fill="#f2f2f2"/><path d="M444.744,535.295h-.795V534.5h-.155v.795H443v.155h.795v.795h.155v-.795h.795Z" transform="translate(-271.259 -301.4)" fill="#f2f2f2"/><path d="M572.744,537.295h-.795V536.5h-.155v.795H571v.155h.795v.795h.155v-.795h.795Z" transform="translate(-349.636 -302.528)" fill="#f2f2f2"/><path d="M93.744,367.295H92.95V366.5h-.155v.795H92v.155h.795v.795h.155v-.795h.795Z" transform="translate(-51.878 -206.666)" fill="#f2f2f2"/><rect width="1.254" height="25.322" transform="translate(262.497 100.605)" fill="#e6e6e6"/><path d="M596.836,385.046,585.3,411.622l2.256,3.761-.752,1.253,5.265,2.758v-1.5l2.006-.5,8.524-15.544Z" transform="translate(-359.535 -217.124)" fill="#e6e6e6"/><path d="M723.516,532.407s-8.524,13.288,1,15.293,1.755-14.04,1.755-14.04Z" transform="translate(-494.526 -333.146)" fill="#e6e6e6"/><path d="M747.793,514.209l-3.009,9.778-1.254,12.536-2.256,4.513,2.507,20.308,4.011,4.011,1.755,20.057v9.026l4.763,8.273-6.134,8.707a2.774,2.774,0,0,0,2.176,4.375,11.462,11.462,0,0,0,5.462-1.548c7.271-3.761,7.02-7.271,7.02-7.271s4.513,0,4.763-3.51-2.758-28.581-2.758-28.581L762.083,564.1V534.768h1l.5,25.071,2.256,9.276.251,4.011,3.259,40.114s14.541,4.011,15.293.752-5.516-5.265-5.516-5.265l3.761-7.271v-14.04l-1.254-3.009L779.382,564.1l3.761-4.011,2.006-2.507V537.525l-2.507-7.772-.752-6.518-4.011-10.029S759.576,507.189,747.793,514.209Z" transform="translate(-510.436 -320.966)" fill="#fff"/><path d="M781.682,364.045a19.054,19.054,0,1,1-34.348-11.365l.005-.005a19.052,19.052,0,0,1,34.342,11.37Z" transform="translate(-511.339 -227.462)" fill="#52e4c4"/><g transform="translate(235.625 118.531)" opacity="0.1"><path d="M783.195,357.445l-1.554,8.9c-11.681-30.321-30.261-11.7-30.582-11.37a19.054,19.054,0,0,1,32.136,2.467Z" transform="translate(-751.059 -347.293)"/></g><path d="M784.345,355.145l-1.554,8.9c-11.681-30.321-30.261-11.7-30.582-11.37a19.054,19.054,0,0,1,32.136,2.467Z" transform="translate(-516.142 -227.465)" fill="#fff"/><path d="M777.512,359.53l2.612,9.067s-5.422,16.251-30.565,16.817l-.824,2.321-2.758.752-1.254,5.265,3.51,33.345s-1.5,3.259,1,3.009c0,0,16.547-5.516,30.838-.5,0,0,3.009,1.254,2.256-1.5,0,0,10.029-6.268,9.276-12.786s.752-36.855.752-36.855,1.5-8.775-3.009-10.781C789.35,367.678,782.722,358.4,777.512,359.53Z" transform="translate(-512.937 -235.608)" fill="#fff"/><path d="M791.632,504.918s-15.708,1.577-11.36,10.288,12.091-7.349,12.091-7.349Z" transform="translate(-531.308 -317.645)" fill="#e6e6e6"/><path d="M812.491,414.981a10.647,10.647,0,0,0-1.755,8.524c1,5.265,4.763,17.048,4.763,17.048l-13.288,12.285,4.011,5.516,18.051-9.276,4.011-2.507h0a104.014,104.014,0,0,0-7.367-29.5l-.656-1.59S815.5,413.477,812.491,414.981Z" transform="translate(-546.399 -266.615)" fill="#e6e6e6"/><circle cx="4.638" cy="4.638" r="4.638" transform="translate(261.164 130.189)" fill="#e6e6e6"/><circle cx="3.385" cy="3.385" r="3.385" transform="translate(259.594 97.095)" fill="#e6e6e6"/><path d="M478.744,351.295h-.795V350.5h-.155v.795H477v.155h.795v.795h.155v-.795h.795Z" transform="translate(-292.078 -197.644)" fill="#f2f2f2"/><path d="M642.744,295.295h-.795V294.5h-.155v.795H641v.155h.795v.795h.155v-.795h.795Z" transform="translate(-392.498 -166.066)" fill="#f2f2f2"/><path d="M624.744,312.295h-.795V311.5h-.155v.795H623v.155h.795v.795h.155v-.795h.795Z" transform="translate(-381.477 -175.652)" fill="#f2f2f2"/><circle cx="1.5" cy="1.5" r="1.5" transform="translate(214 115)" fill="#f2f2f2"/><path d="M407.585,204.237c0,121.693-15.3,121.693-34.173,121.693-9.756,0-18.558,0-24.782-16.81a104.984,104.984,0,0,1-4.7-19.08c-2.984-18.026-4.7-45.114-4.7-85.8a233.846,233.846,0,0,1,4.7-45.312c1.367-6.9,2.963-13.555,4.7-19.9,2.118-7.774,4.44-15.083,6.782-21.772,1.57-4.5,3.156-8.718,4.7-12.615a271.125,271.125,0,0,1,13.3-29.133S407.585,137.028,407.585,204.237Z" transform="translate(-262.779 -75.5)" fill="#f2f2f2"/><g transform="translate(92.695 29.133)" opacity="0.1"><path d="M381.02,142.3V354.469h-4.7V154.918C377.9,150.421,379.481,146.2,381.02,142.3Z" transform="translate(-376.325 -142.303)"/></g><circle cx="18.782" cy="18.782" r="18.782" transform="translate(90.044 65.216)" fill="#3f3d56"/><path d="M402.288,605.88c-4.176-10.28-9.538-12.053-13.043-11.9v-1.666H334.463v1.666c-3.5-.154-8.867,1.619-13.043,11.9-6.782,16.7,4.174,45.39,4.174,45.39s-5.855-40.02,13.588-40.284a23.011,23.011,0,0,0,6.1,5.534v10.764h31.4V617.5a22.985,22.985,0,0,0,7.844-6.514c19.444.263,13.588,40.284,13.588,40.284S409.071,622.575,402.288,605.88Z" transform="translate(-250.883 -366.928)" fill="#5a6d8b"/><path d="M14.608,0A14.608,14.608,0,1,1,0,14.608,14.608,14.608,0,0,1,14.608,0Z" transform="translate(93.999 69.39)" fill="#5a6d8b"/><path d="M981.882,276.46h-.872a35.8,35.8,0,0,0,35.756,35.56v-.872a34.923,34.923,0,0,1-34.884-34.688Z" transform="translate(-657.583 -188.82)" fill="#1469b8"/><path d="M944.882,276.46h-.872a51.947,51.947,0,0,0,51.892,51.7v-.872a51.078,51.078,0,0,1-51.02-50.824Z" transform="translate(-636.719 -188.82)" fill="#1469b8"/><path d="M906.872,276.46H906A68.646,68.646,0,0,0,944.068,337.6a67.788,67.788,0,0,0,30.4,7.126v-.872A67.672,67.672,0,0,1,906.872,276.46Z" transform="translate(-615.285 -188.82)" fill="#1469b8"/></svg>