<svg xmlns="http://www.w3.org/2000/svg" width="544.184" height="440.166" viewBox="0 0 544.184 440.166"><circle cx="49.352" cy="49.352" r="49.352" transform="translate(90.458 84.011)" fill="#ff6584"/><path d="M681.184,276.46v129.8c0,105.813-85.778,191.586-191.586,191.581H137v-129.8A191.757,191.757,0,0,1,258.977,289.5a188.1,188.1,0,0,1,18.664-6.188c.123-.041.253-.076.376-.106q2.8-.767,5.642-1.446c.106-.029.206-.053.311-.076a191.652,191.652,0,0,1,35.537-5.013c1.416-.065,2.833-.118,4.261-.147.511-.018,1.028-.029,1.551-.029q1.622-.035,3.262-.035Z" transform="translate(-137 -158.362)" fill="#3f3d56"/><path d="M390.878,681c-139.916,0-253.393,37.729-253.868,84.331H644.746C644.27,718.729,530.794,681,390.878,681Z" transform="translate(-137.004 -325.165)" fill="#f2f2f2"/><g transform="translate(159.847 393.609)" opacity="0.1"><ellipse cx="47.014" cy="13.059" rx="47.014" ry="13.059"/></g><g transform="translate(261.514 370.102)" opacity="0.1"><ellipse cx="47.014" cy="13.059" rx="47.014" ry="13.059"/></g><g transform="translate(164.681 395.011)" opacity="0.1"><ellipse cx="42" cy="11.5" rx="42" ry="11.5" transform="translate(0.319 -0.011)"/></g><g transform="translate(265.937 371.644)" opacity="0.1"><ellipse cx="43" cy="11.5" rx="43" ry="11.5" transform="translate(0.063 0.356)"/></g><circle cx="4" cy="4" r="4" transform="translate(77 167)" fill="#f2f2f2"/><ellipse cx="4" cy="4.5" rx="4" ry="4.5" transform="translate(432 327)" fill="#f2f2f2"/><ellipse cx="4.5" cy="4" rx="4.5" ry="4" transform="translate(237 195)" fill="#f2f2f2"/><circle cx="2.5" cy="2.5" r="2.5" transform="translate(442 172)" fill="#ff6584"/><ellipse cx="2" cy="3" rx="2" ry="3" transform="translate(88 289)" fill="#ff6584"/><path d="M92.351,580.571H91.28V579.5h-.209v1.071H90v.209h1.071v1.071h.209V580.78h1.071Z" transform="translate(-37.11 -238.945)" fill="#f2f2f2"/><path d="M677.351,432.571H676.28V431.5h-.209v1.071H675v.209h1.071v1.071h.209V432.78h1.071Z" transform="translate(-278.322 -177.92)" fill="#f2f2f2"/><path d="M828.351,402.571H827.28V401.5h-.209v1.071H826v.209h1.071v1.071h.209V402.78h1.071Z" transform="translate(-340.584 -165.55)" fill="#f2f2f2"/><path d="M503.351,482.571H502.28V481.5h-.209v1.071H501v.209h1.071v1.071h.209V482.78h1.071Z" transform="translate(-206.577 -198.536)" fill="#f2f2f2"/><path d="M784.351,492.571H783.28V491.5h-.209v1.071H782v.209h1.071v1.071h.209V492.78h1.071Z" transform="translate(-322.441 -202.66)" fill="#f2f2f2"/><path d="M445.351,535.571H444.28V534.5h-.209v1.071H443v.209h1.071v1.071h.209V535.78h1.071Z" transform="translate(-182.662 -220.39)" fill="#f2f2f2"/><path d="M573.351,537.571H572.28V536.5h-.209v1.071H571v.209h1.071v1.071h.209V537.78h1.071Z" transform="translate(-235.44 -221.214)" fill="#f2f2f2"/><path d="M94.351,367.571H93.28V366.5h-.209v1.071H92v.209h1.071v1.071h.209V367.78h1.071Z" transform="translate(-37.934 -151.118)" fill="#f2f2f2"/><rect width="1.689" height="34.122" transform="translate(397.852 135.569)" fill="#e6e6e6"/><path d="M600.844,385.046,585.3,420.857l3.041,5.068-1.014,1.689,7.1,3.716V429.3l2.7-.676,11.487-20.946Z" transform="translate(-241.337 -158.766)" fill="#e6e6e6"/><path d="M724.735,532.407s-11.487,17.906,1.351,20.608,2.365-18.919,2.365-18.919Z" transform="translate(-377.391 -263.896)" fill="#e6e6e6"/><path d="M750.058,515.392,746,528.568l-1.689,16.892-3.041,6.081,3.378,27.365,5.405,5.406,2.365,27.027V623.5l6.419,11.149-8.266,11.732a3.738,3.738,0,0,0,2.933,5.895,15.443,15.443,0,0,0,7.36-2.087c9.8-5.068,9.46-9.8,9.46-9.8s6.081,0,6.419-4.73-3.716-38.514-3.716-38.514l-3.716-14.527V543.1h1.351l.676,33.784,3.041,12.5.338,5.406,4.392,54.055s19.595,5.405,20.608,1.014-7.433-7.095-7.433-7.095l5.068-9.8V614.042l-1.689-4.054-3.041-27.365,5.068-5.406,2.7-3.378V546.811l-3.378-10.473L796,527.554,790.6,514.04S765.937,505.932,750.058,515.392Z" transform="translate(-386.16 -254.989)" fill="#fff"/><path d="M794.926,370.667a25.676,25.676,0,1,1-46.285-15.314l.007-.007a25.674,25.674,0,0,1,46.278,15.321Z" transform="translate(-387.108 -186.618)" fill="#6c63ff"/><g transform="translate(360.865 159.725)" opacity="0.1"><path d="M794.363,360.973l-2.095,12c-15.74-40.859-40.778-15.76-41.21-15.321a25.676,25.676,0,0,1,43.3,3.324Z" transform="translate(-751.059 -347.293)"/></g><path d="M795.513,358.673l-2.095,12c-15.74-40.859-40.778-15.76-41.21-15.321a25.676,25.676,0,0,1,43.3,3.324Z" transform="translate(-390.668 -186.62)" fill="#fff"/><path d="M788.907,359.563l3.52,12.218s-7.306,21.9-41.188,22.662l-1.11,3.128-3.716,1.014-1.689,7.095,4.73,44.933s-2.027,4.392,1.351,4.054c0,0,22.3-7.433,41.555-.676,0,0,4.054,1.689,3.041-2.027,0,0,13.514-8.446,12.5-17.23s1.013-49.663,1.013-49.663,2.027-11.825-4.054-14.527C804.86,370.543,795.928,358.042,788.907,359.563Z" transform="translate(-387.582 -192.574)" fill="#fff"/><path d="M795.845,504.918s-21.167,2.126-15.308,13.864,16.293-9.9,16.293-9.9Z" transform="translate(-401.926 -252.561)" fill="#e6e6e6"/><path d="M816.063,415.176a14.347,14.347,0,0,0-2.365,11.487c1.351,7.095,6.419,22.973,6.419,22.973L802.212,466.19l5.406,7.432,24.325-12.5,5.406-3.378h0a140.167,140.167,0,0,0-9.927-39.75l-.884-2.142S820.118,413.149,816.063,415.176Z" transform="translate(-411.286 -215.247)" fill="#e6e6e6"/><circle cx="6.25" cy="6.25" r="6.25" transform="translate(396.838 175.435)" fill="#e6e6e6"/><circle cx="4.561" cy="4.561" r="4.561" transform="translate(394.135 130.84)" fill="#e6e6e6"/><path d="M479.351,351.571H478.28V350.5h-.209v1.071H477v.209h1.071v1.071h.209V351.78h1.071Z" transform="translate(-196.681 -144.521)" fill="#f2f2f2"/><path d="M643.351,295.571H642.28V294.5h-.209v1.071H641v.209h1.071v1.071h.209V295.78h1.071Z" transform="translate(-264.303 -121.431)" fill="#f2f2f2"/><path d="M625.351,312.571H624.28V311.5h-.209v1.071H623v.209h1.071v1.071h.209V312.78h1.071Z" transform="translate(-256.881 -128.44)" fill="#f2f2f2"/><ellipse cx="2.5" cy="2" rx="2.5" ry="2" transform="translate(324 155)" fill="#f2f2f2"/><path d="M431.338,248.977c0,163.986-20.62,163.986-46.05,163.986-13.147,0-25.007,0-33.395-22.652a141.468,141.468,0,0,1-6.327-25.711c-4.021-24.29-6.327-60.793-6.327-115.623a315.119,315.119,0,0,1,6.327-61.06c1.842-9.294,3.993-18.265,6.327-26.821,2.854-10.475,5.983-20.325,9.14-29.338,2.116-6.06,4.253-11.748,6.327-17A365.352,365.352,0,0,1,385.288,75.5S431.338,158.411,431.338,248.977Z" transform="translate(-220.389 -75.5)" fill="#f2f2f2"/><g transform="translate(140.644 39.258)" opacity="0.1"><path d="M382.652,142.3V428.2h-6.327V159.3C378.441,153.242,380.578,147.555,382.652,142.3Z" transform="translate(-376.325 -142.303)"/></g><circle cx="25.31" cy="25.31" r="25.31" transform="translate(138.184 87.881)" fill="#3f3d56"/><path d="M431.163,610.594c-5.628-13.852-12.853-16.242-17.576-16.035v-2.245h-73.82v2.245c-4.723-.208-11.949,2.182-17.576,16.035-9.14,22.5,5.624,61.165,5.624,61.165s-7.89-53.929,18.311-54.284a31.009,31.009,0,0,0,8.22,7.457v14.5h42.312V626.253a30.973,30.973,0,0,0,10.57-8.778c26.2.355,18.311,54.284,18.311,54.284S440.3,633.091,431.163,610.594Z" transform="translate(-212.128 -288.597)" fill="#6c63ff"/><circle cx="19.685" cy="19.685" r="19.685" transform="translate(143.808 93.506)" fill="#6c63ff"/><path d="M982.185,276.46H981.01a48.239,48.239,0,0,0,48.183,47.919V323.2a47.06,47.06,0,0,1-47.008-46.743Z" transform="translate(-485.01 -158.362)" fill="#6c63ff"/><path d="M945.185,276.46H944.01a70,70,0,0,0,69.927,69.663v-1.175A68.83,68.83,0,0,1,945.185,276.46Z" transform="translate(-469.753 -158.362)" fill="#6c63ff"/><path d="M907.175,276.46H906a92.369,92.369,0,0,0,92.264,91.994v-1.175A91.19,91.19,0,0,1,907.175,276.46Z" transform="translate(-454.081 -158.362)" fill="#6c63ff"/></svg>